<?xml version="1.0" encoding="utf-8"?>
<!-- Generator: Adobe Illustrator 16.0.0, SVG Export Plug-In . SVG Version: 6.00 Build 0)  -->
<!DOCTYPE svg PUBLIC "-//W3C//DTD SVG 1.1//EN" "http://www.w3.org/Graphics/SVG/1.1/DTD/svg11.dtd">
<svg version="1.1" xmlns="http://www.w3.org/2000/svg" xmlns:xlink="http://www.w3.org/1999/xlink" x="0px" y="0px" width="500px"
	 height="238.406px" viewBox="0 0 500 238.406" enable-background="new 0 0 500 238.406" xml:space="preserve">
<g id="Calque_4">
	<g>
		<path fill="#414042" d="M30.958,120.522c0,60.588,98.064,109.697,219.042,109.697c120.972,0,219.042-49.109,219.042-109.697
			c0-60.582-98.07-109.697-219.042-109.697C129.022,10.825,30.958,59.94,30.958,120.522z"/>
		<path fill="#58595B" d="M138.063,155.2c0,9.766,46.682,17.693,104.262,17.693c57.597,0,104.28-7.928,104.28-17.693
			c0-9.78-46.684-17.71-104.28-17.71C184.745,137.49,138.063,145.419,138.063,155.2z"/>
		<path fill="none" stroke="#939598" stroke-miterlimit="10" d="M279.852,75.351c0-18.491,15.404-33.452,34.44-33.452"/>
		<path fill="#6D6E71" d="M319.484,41.74c0,4.431-3.588,8.022-8.021,8.022c-4.43,0-8.019-3.591-8.019-8.022
			c0-4.428,3.589-8.02,8.019-8.02C315.896,33.72,319.484,37.312,319.484,41.74z"/>
		<path opacity="0.6" fill="#A7A9AC" d="M316.477,39.246c0.968,1.986,0.458,4.228-1.139,5.013c-1.599,0.785-3.683-0.189-4.656-2.173
			c-0.973-1.98-0.459-4.222,1.134-5.004C313.418,36.294,315.498,37.266,316.477,39.246z"/>
		<g>
			<defs>
				<path id="SVGID_1_" d="M314.498,128.765c0,11.8-9.577,21.36-21.388,21.36h-93.867c-11.811,0-21.382-9.561-21.382-21.36V94.563
					c0-11.798,9.571-21.364,21.382-21.364h93.867c11.811,0,21.388,9.566,21.388,21.364V128.765z"/>
			</defs>
			<use xlink:href="#SVGID_1_"  overflow="visible" fill="#939598"/>
			<clipPath id="SVGID_2_">
				<use xlink:href="#SVGID_1_"  overflow="visible"/>
			</clipPath>
			<path clip-path="url(#SVGID_2_)" fill="#939598" d="M314.828,129.235c0,11.926-9.741,21.592-21.75,21.592h-94.262
				c-12.009,0-21.746-9.666-21.746-21.592V95.048c0-11.927,9.737-21.594,21.746-21.594h94.262c12.009,0,21.75,9.667,21.75,21.594
				V129.235z"/>
		</g>
		<g>
			<defs>
				<path id="SVGID_3_" d="M309.781,132.155c0,12.016-9.742,21.752-21.752,21.752h-95.494c-12.009,0-21.75-9.736-21.75-21.752
					v-34.84c0-12.01,9.742-21.752,21.75-21.752h95.494c12.01,0,21.752,9.742,21.752,21.752V132.155z"/>
			</defs>
			<clipPath id="SVGID_4_">
				<use xlink:href="#SVGID_3_"  overflow="visible"/>
			</clipPath>
			<path clip-path="url(#SVGID_4_)" fill="#6D6E71" d="M310.119,132.631c0,12.141-9.91,21.988-22.128,21.988h-95.887
				c-12.22,0-22.122-9.848-22.122-21.988V97.813c0-12.145,9.902-21.991,22.122-21.991h95.887c12.218,0,22.128,9.846,22.128,21.991
				V132.631z"/>
		</g>
		<g opacity="0.6">
			<defs>
				<path id="SVGID_5_" opacity="0.6" d="M293.327,130.043c0,9.35-8.162,16.936-18.23,16.936h-80c-10.07,0-18.23-7.586-18.23-16.936
					v-27.104c0-9.351,8.16-16.93,18.23-16.93h80c10.068,0,18.23,7.579,18.23,16.93V130.043z"/>
			</defs>
			<clipPath id="SVGID_6_">
				<use xlink:href="#SVGID_5_"  overflow="visible"/>
			</clipPath>
			<path clip-path="url(#SVGID_6_)" fill="#00A79D" d="M293.327,130.043c0,9.35-8.162,16.936-18.23,16.936h-80
				c-10.07,0-18.23-7.586-18.23-16.936v-27.104c0-9.351,8.16-16.93,18.23-16.93h80c10.068,0,18.23,7.579,18.23,16.93V130.043z"/>
		</g>
		<g>
			<path opacity="0.9" fill="#6D6E71" d="M210.08,120.03c0,7.558-6.121,13.68-13.68,13.68c-7.552,0-13.679-6.122-13.679-13.68
				c0-7.558,6.127-13.679,13.679-13.679C203.959,106.351,210.08,112.472,210.08,120.03z"/>
			<path opacity="0.9" fill="#6D6E71" d="M280.272,120.03c0,11.047-8.952,19.998-19.994,19.998
				c-11.047,0-19.999-8.951-19.999-19.998c0-11.042,8.952-19.993,19.999-19.993C271.32,100.037,280.272,108.987,280.272,120.03z"/>
		</g>
		<path fill="#808285" d="M163.293,132.718l-15.383-13.513l14.681-16.698c1.095-1.25,0.159-3.865-2.091-5.844
			c-2.256-1.974-4.964-2.565-6.065-1.316L137.56,114.55c-0.542,0.381-1.073,0.851-1.565,1.41c-1.974,2.25-2.532,4.993-1.233,6.131
			l21.364,18.777c1.295,1.14,3.943,0.237,5.923-2.013C164.027,136.6,164.581,133.858,163.293,132.718z"/>
		<path fill="#808285" d="M315.022,103.176l15.493,13.387l-14.536,16.82c-1.083,1.261-0.128,3.864,2.139,5.827
			c2.272,1.957,4.987,2.527,6.078,1.267l16.714-19.346c0.536-0.387,1.062-0.862,1.548-1.427c1.958-2.267,2.488-5.015,1.184-6.142
			l-21.525-18.595c-1.305-1.123-3.941-0.2-5.904,2.067C314.254,99.306,313.718,102.054,315.022,103.176z"/>
		<path opacity="0.6" fill="#808285" d="M317.849,101.762l15.492,13.385l-14.536,16.821c-1.084,1.26-0.128,3.865,2.14,5.826
			c2.272,1.957,4.986,2.527,6.076,1.267l16.716-19.346c0.536-0.387,1.061-0.862,1.548-1.427c1.957-2.267,2.487-5.015,1.184-6.143
			l-21.526-18.594c-1.304-1.123-3.942-0.2-5.904,2.067C317.08,97.891,316.542,100.639,317.849,101.762z"/>
		<path opacity="0.6" fill="#808285" d="M165.045,100.445l-14.769,14.183l15.399,16.035c1.144,1.199,0.326,3.853-1.835,5.927
			c-2.168,2.073-4.849,2.786-6.006,1.581l-17.698-18.439c-0.559-0.36-1.106-0.808-1.62-1.338c-2.074-2.168-2.748-4.889-1.509-6.076
			l20.523-19.695c1.244-1.195,3.932-0.409,6.004,1.752C165.615,96.541,166.289,99.257,165.045,100.445z"/>
		<g opacity="0.4">
			<path fill="#939598" d="M332.171,107.011c0,0,2.447,2.095,4.831,4.254c0.6,0.537,1.222,1.05,1.77,1.567
				c0.536,0.529,1.002,1.059,1.384,1.529c0.771,0.936,1.188,1.657,1.188,1.657c0.015,0.025,0.006,0.057-0.02,0.071
				c-0.016,0.009-0.035,0.009-0.051,0c0,0-0.729-0.404-1.679-1.158c-0.477-0.374-1.015-0.83-1.554-1.356
				c-0.527-0.538-1.052-1.151-1.599-1.74c-2.203-2.344-4.342-4.753-4.342-4.753c-0.019-0.021-0.017-0.052,0.004-0.071
				C332.124,106.995,332.152,106.995,332.171,107.011z"/>
		</g>
		<g opacity="0.4">
			<path fill="#939598" d="M285.695,78.959c0,0,0.386,0.071,1.061,0.194c0.336,0.069,0.75,0.122,1.215,0.239
				c0.467,0.114,0.994,0.243,1.569,0.383c0.566,0.172,1.18,0.359,1.828,0.557c0.642,0.223,1.308,0.488,1.997,0.762
				c0.668,0.324,1.39,0.596,2.067,0.989c0.345,0.186,0.691,0.374,1.04,0.562l1.009,0.639c0.681,0.416,1.313,0.914,1.935,1.4
				c0.298,0.262,0.594,0.521,0.885,0.778c0.284,0.267,0.536,0.562,0.798,0.837c0.261,0.276,0.48,0.582,0.69,0.885
				c0.206,0.305,0.442,0.578,0.584,0.906c0.16,0.313,0.315,0.618,0.466,0.912c0.123,0.309,0.224,0.615,0.328,0.903
				c0.121,0.282,0.171,0.576,0.21,0.855c0.044,0.277,0.095,0.537,0.123,0.783c-0.001,0.5,0.018,0.932-0.03,1.281
				c-0.136,0.699-0.231,1.078-0.231,1.078c-0.007,0.026-0.033,0.042-0.061,0.036c-0.021-0.006-0.036-0.024-0.037-0.046v-0.009
				c0,0-0.02-0.401-0.022-1.068c-0.034-0.333-0.125-0.733-0.184-1.185c-0.153-0.438-0.262-0.944-0.513-1.45
				c-0.118-0.254-0.241-0.52-0.368-0.793c-0.161-0.257-0.328-0.523-0.5-0.796c-0.157-0.28-0.39-0.527-0.582-0.805
				c-0.199-0.274-0.407-0.552-0.66-0.804c-0.237-0.263-0.459-0.549-0.718-0.809c-0.263-0.257-0.529-0.517-0.798-0.779
				c-0.563-0.497-1.137-1.012-1.769-1.451l-0.945-0.665c-0.33-0.199-0.658-0.397-0.983-0.594c-0.642-0.414-1.334-0.712-1.973-1.062
				c-0.666-0.294-1.311-0.579-1.922-0.849c-0.627-0.235-1.22-0.458-1.767-0.663c-0.558-0.175-1.068-0.335-1.522-0.477
				c-0.452-0.146-0.864-0.225-1.195-0.315c-0.665-0.167-1.046-0.262-1.046-0.262c-0.026-0.007-0.043-0.034-0.036-0.061
				C285.644,78.97,285.67,78.954,285.695,78.959z"/>
		</g>
		<g opacity="0.4">
			<path fill="#939598" d="M174.243,90.548c0,0,0.156-0.252,0.429-0.693c0.261-0.448,0.682-1.059,1.201-1.792
				c0.264-0.362,0.571-0.737,0.886-1.144c0.321-0.401,0.699-0.791,1.07-1.213c0.402-0.392,0.8-0.819,1.246-1.209
				c0.444-0.393,0.897-0.792,1.389-1.146c0.467-0.387,0.991-0.7,1.488-1.037c0.527-0.293,1.042-0.593,1.587-0.8
				c0.534-0.222,1.09-0.358,1.612-0.47c0.537-0.07,1.042-0.136,1.519-0.089c0.472-0.014,0.898,0.143,1.268,0.209
				c0.363,0.126,0.668,0.262,0.906,0.385c0.453,0.309,0.684,0.494,0.684,0.494c0.021,0.017,0.025,0.048,0.008,0.07
				c-0.013,0.017-0.034,0.022-0.053,0.017l-0.009-0.003c0,0-0.295-0.086-0.764-0.252c-0.245-0.042-0.542-0.091-0.883-0.149
				c-0.348,0.005-0.725-0.041-1.144,0.03c-0.416,0.021-0.859,0.136-1.326,0.234c-0.457,0.159-0.954,0.263-1.436,0.494
				c-0.505,0.164-0.993,0.428-1.51,0.653c-0.491,0.28-1.011,0.534-1.486,0.868c-0.491,0.309-0.951,0.665-1.404,1.018
				c-0.455,0.349-0.867,0.74-1.284,1.096c-0.793,0.758-1.507,1.5-2.09,2.163c-0.566,0.673-1.037,1.244-1.335,1.67
				c-0.309,0.416-0.486,0.654-0.486,0.654c-0.017,0.022-0.048,0.026-0.07,0.01C174.234,90.599,174.229,90.57,174.243,90.548z"/>
		</g>
		<g opacity="0.4">
			<path fill="#939598" d="M160.875,100.517c0,0-2.664,3.417-5.397,6.775c-0.674,0.848-1.336,1.705-1.988,2.483
				c-0.672,0.759-1.318,1.452-1.905,2.018c-0.591,0.562-1.082,1.032-1.452,1.337c-0.361,0.313-0.582,0.48-0.582,0.48
				c-0.022,0.017-0.054,0.013-0.071-0.01c-0.013-0.017-0.014-0.039-0.004-0.056c0,0,0.133-0.242,0.391-0.645
				c0.249-0.411,0.643-0.963,1.113-1.629c0.475-0.662,1.067-1.401,1.722-2.176c0.676-0.756,1.429-1.536,2.17-2.325
				c2.929-3.188,5.927-6.317,5.927-6.317c0.019-0.02,0.051-0.021,0.071-0.001C160.889,100.468,160.891,100.497,160.875,100.517z"/>
		</g>
		<path fill="#58595B" d="M234.845,140.802c0-2.61-22.249-2.61-22.249,0c0,2.616,4.981,4.732,11.124,4.732
			C229.869,145.535,234.845,143.418,234.845,140.802z"/>
		<path opacity="0.6" fill="#808285" d="M227.602,142.577c0-1.089-9.228-1.089-9.228,0c0,1.084,2.067,1.963,4.616,1.963
			S227.602,143.661,227.602,142.577z"/>
	</g>
</g>

<!-- <g id="yeux">
	<g id="_x31_">
		<path class="eyes" id="left-eye" opacity="0.5" fill="#414042" d="M207.862,120.168c0,5.866-4.749,10.609-10.61,10.609c-5.866,0-10.609-4.743-10.609-10.609
			c0-5.861,4.743-10.61,10.609-10.61C203.113,109.558,207.862,114.308,207.862,120.168z"/>
		<path class="eyes" id="right-eye" opacity="0.5" fill="#414042" d="M276.352,120.03c0,8.703-7.049,15.751-15.748,15.751c-8.701,0-15.752-7.049-15.752-15.751
			c0-8.698,7.051-15.748,15.752-15.748C269.303,104.283,276.352,111.333,276.352,120.03z"/>
	</g>
</g> -->

<!-- <g id="Calque_3">
	<g>
		<g>
			<path fill="#939598" d="M180.349,138.022c-2.184,3.399-6.707,4.379-10.106,2.199l0,0c-3.39-2.184-4.379-6.713-2.189-10.111
				L203.5,74.938c2.184-3.398,6.707-4.379,10.102-2.198l0,0c3.4,2.184,4.385,6.709,2.201,10.107L180.349,138.022z"/>
		</g>
		<g>
			<path fill="#808285" d="M177.989,138.961c-2.185,3.4-6.708,4.384-10.107,2.199l0,0c-3.396-2.184-4.385-6.706-2.195-10.105
				l35.452-55.174c2.184-3.398,6.707-4.379,10.103-2.198l0,0c3.399,2.184,4.385,6.709,2.2,10.107L177.989,138.961z"/>
			<g opacity="0.4">
				<path fill="#939598" d="M211.794,78.191c0,0-0.34,0.61-0.937,1.679c-0.614,1.057-1.456,2.588-2.53,4.387
					c-1.074,1.798-2.298,3.914-3.663,6.148c-1.353,2.241-2.83,4.611-4.303,6.983c-1.491,2.361-2.979,4.723-4.404,6.919
					c-1.416,2.202-2.783,4.229-3.932,5.98c-1.15,1.75-2.159,3.178-2.841,4.191c-0.701,1.003-1.101,1.576-1.101,1.576
					s0.341-0.61,0.937-1.678c0.614-1.057,1.458-2.588,2.531-4.387c1.074-1.798,2.3-3.913,3.663-6.148
					c1.354-2.241,2.829-4.612,4.302-6.984c1.49-2.361,2.978-4.724,4.403-6.919c1.414-2.203,2.783-4.229,3.932-5.98
					c1.149-1.751,2.16-3.177,2.842-4.191C211.394,78.764,211.794,78.191,211.794,78.191z"/>
			</g>
		</g>
	</g>
</g> -->
</svg>
