<?xml version="1.0" encoding="utf-8"?>
<!-- Generator: Adobe Illustrator 16.0.0, SVG Export Plug-In . SVG Version: 6.00 Build 0)  -->
<!DOCTYPE svg PUBLIC "-//W3C//DTD SVG 1.1//EN" "http://www.w3.org/Graphics/SVG/1.1/DTD/svg11.dtd">
<svg version="1.1" xmlns="http://www.w3.org/2000/svg" xmlns:xlink="http://www.w3.org/1999/xlink" x="0px" y="0px" width="500px"
	 height="238px" viewBox="0 0 500 238" enable-background="new 0 0 500 238" xml:space="preserve">
<g id="Calque_12">
</g>
<g id="full_x5F_bot">
	<g id="decoration">
		<path id="boxend" fill="#414042" d="M0,119.854C0,185.318,111.925,238.38,250.001,238.38C388.07,238.38,500,185.318,500,119.854
			C500,54.396,388.07,1.329,250.001,1.329C111.925,1.329,0,54.396,0,119.854z"/>
		<path id="ground" fill="#58595B" d="M135.482,167.121c0,10.552,50.438,19.118,112.653,19.118
			c62.231,0,112.671-8.566,112.671-19.118c0-10.568-50.439-19.134-112.671-19.134C185.921,147.987,135.482,156.553,135.482,167.121z
			"/>
	</g>
	<g id="box">
		<defs>
			<path id="SVGID_1_" d="M329.796,131.021c0,12.748-10.348,23.077-23.107,23.077H205.267c-12.761,0-23.103-10.329-23.103-23.077
				V94.064c0-12.747,10.342-23.083,23.103-23.083h101.422c12.76,0,23.107,10.336,23.107,23.083V131.021z"/>
		</defs>
		<use xlink:href="#SVGID_1_"  overflow="visible" fill="#797A7D"/>
		<clipPath id="SVGID_2_">
			<use xlink:href="#SVGID_1_"  overflow="visible"/>
		</clipPath>
		<path clip-path="url(#SVGID_2_)" fill="#797A7D" d="M330.155,131.528c0,12.887-10.527,23.329-23.504,23.329H204.806
			c-12.975,0-23.496-10.442-23.496-23.329V94.59c0-12.885,10.521-23.334,23.496-23.334h101.846
			c12.977,0,23.504,10.449,23.504,23.334V131.528z"/>
	</g>
	<path fill="#656668" d="M325.063,135.195c0,13.12-10.704,23.76-23.907,23.76H197.554c-13.202,0-23.903-10.64-23.903-23.76V97.577
		c0-13.125,10.701-23.758,23.903-23.758h103.603c13.203,0,23.907,10.633,23.907,23.758V135.195z"/>
	<g id="screen" opacity="0.7">
		<defs>
			<path id="SVGID_3_" opacity="0.7" d="M306.921,132.4c0,10.103-8.817,18.298-19.697,18.298h-86.438
				c-10.879,0-19.697-8.195-19.697-18.298v-29.285c0-10.103,8.818-18.292,19.697-18.292h86.438c10.88,0,19.697,8.189,19.697,18.292
				V132.4z"/>
		</defs>
		<use xlink:href="#SVGID_3_"  overflow="visible" fill="#00A79D"/>
		<clipPath id="SVGID_4_">
			<use xlink:href="#SVGID_3_"  overflow="visible"/>
		</clipPath>
		<path clip-path="url(#SVGID_4_)" fill="#00A79D" d="M306.921,132.4c0,10.103-8.817,18.298-19.697,18.298h-86.438
			c-10.879,0-19.697-8.195-19.697-18.298v-29.285c0-10.103,8.818-18.292,19.697-18.292h86.438c10.88,0,19.697,8.189,19.697,18.292
			V132.4z"/>
	</g>
	<g id="parts">
		<g id="shadows">
			<path id="QUOTE_R_OMBRE_2_" opacity="0.86" fill="#808285" d="M333.416,101.844l16.738,14.462l-15.705,18.174
				c-1.17,1.362-0.138,4.177,2.312,6.298c2.455,2.114,5.389,2.729,6.566,1.367l18.059-20.903c0.581-0.419,1.147-0.933,1.675-1.542
				c2.114-2.449,2.688-5.418,1.277-6.636l-23.257-20.092c-1.411-1.212-4.26-0.215-6.38,2.234
				C332.586,97.662,332.006,100.63,333.416,101.844z"/>
			<path id="QUOTE_L_OMBRE_2_" opacity="0.86" fill="#808285" d="M168.315,100.421l-15.956,15.324l16.639,17.324
				c1.235,1.296,0.353,4.164-1.985,6.405c-2.34,2.239-5.238,3.01-6.486,1.708l-19.123-19.923c-0.604-0.39-1.194-0.873-1.751-1.446
				c-2.239-2.342-2.97-5.282-1.631-6.565l22.177-21.279c1.344-1.291,4.247-0.442,6.486,1.894
				C168.932,96.204,169.66,99.137,168.315,100.421z"/>
		</g>
		<g id="elements">
			<path id="ANTENNE_3_" fill="none" stroke="#757679" stroke-miterlimit="10" d="M292.362,73.305
				c0-18.311,16.645-33.133,37.212-33.133"/>
			<path id="ANTENNE_2_" fill="#656668" d="M335.185,39.158c0,4.784-3.877,8.668-8.669,8.668c-4.784,0-8.662-3.884-8.662-8.668
				c0-4.787,3.878-8.669,8.662-8.669C331.308,30.489,335.185,34.371,335.185,39.158z"/>
			<g id="QUOTES">
				<path id="QUOTE_3_" fill="#656668" d="M166.423,135.293l-16.62-14.602l15.861-18.04c1.183-1.353,0.172-4.178-2.259-6.316
					c-2.438-2.133-5.365-2.771-6.554-1.422l-18.232,20.748c-0.586,0.412-1.159,0.921-1.69,1.524
					c-2.132,2.431-2.736,5.395-1.332,6.624l23.083,20.289c1.398,1.23,4.26,0.257,6.397-2.175
					C167.218,139.486,167.814,136.523,166.423,135.293z"/>
				<path id="QUOTE_2_" fill="#656668" d="M330.363,103.372l16.74,14.464l-15.707,18.173c-1.171,1.363-0.136,4.176,2.313,6.297
					c2.455,2.114,5.389,2.73,6.564,1.367l18.06-20.902c0.579-0.419,1.147-0.933,1.673-1.541c2.114-2.449,2.688-5.42,1.278-6.638
					l-23.257-20.09c-1.41-1.214-4.259-0.217-6.38,2.232C329.532,99.19,328.953,102.161,330.363,103.372z"/>
			</g>
		</g>
		<g id="landforms">
			<g id="ECRAN_RELIEF_2_" opacity="0.4">
				<path fill="#939598" d="M178.259,89.729c0,0,0.169-0.271,0.466-0.747c0.283-0.483,0.74-1.142,1.303-1.932
					c0.286-0.39,0.62-0.793,0.961-1.231c0.349-0.432,0.757-0.852,1.159-1.307c0.436-0.422,0.865-0.882,1.348-1.302
					c0.479-0.423,0.97-0.852,1.501-1.232c0.505-0.416,1.071-0.752,1.608-1.114c0.568-0.313,1.124-0.636,1.711-0.857
					c0.575-0.24,1.173-0.387,1.734-0.509c0.578-0.077,1.12-0.15,1.633-0.103c0.508-0.018,0.967,0.147,1.365,0.216
					c0.391,0.133,0.72,0.276,0.978,0.406c0.489,0.327,0.742,0.523,0.742,0.523c0.021,0.017,0.025,0.048,0.009,0.069
					c-0.014,0.018-0.035,0.023-0.055,0.018l-0.009-0.003c0,0-0.316-0.097-0.821-0.282c-0.265-0.047-0.587-0.104-0.955-0.17
					c-0.378,0.003-0.786-0.051-1.241,0.022c-0.451,0.021-0.933,0.143-1.439,0.248c-0.496,0.169-1.035,0.283-1.559,0.532
					c-0.547,0.179-1.075,0.466-1.635,0.712c-0.53,0.305-1.093,0.581-1.605,0.944c-0.53,0.336-1.027,0.722-1.517,1.104
					c-0.491,0.379-0.936,0.802-1.386,1.188c-0.856,0.821-1.625,1.625-2.253,2.344c-0.61,0.729-1.117,1.348-1.438,1.81
					c-0.333,0.45-0.523,0.708-0.523,0.708c-0.016,0.022-0.048,0.026-0.069,0.011S178.245,89.751,178.259,89.729z"/>
			</g>
			<path id="ANTENNE_RELIEF_2_" opacity="0.6" fill="#A7A9AC" d="M331.935,36.462c1.045,2.145,0.496,4.565-1.23,5.412
				c-1.726,0.85-3.979-0.202-5.031-2.347c-1.051-2.139-0.495-4.559,1.227-5.406C328.63,33.273,330.877,34.324,331.935,36.462z"/>
			<g id="QR_RELIEF_3_" opacity="0.4">
				<path fill="#939598" d="M348.89,107.519c0,0,2.632,2.276,5.199,4.616c0.646,0.582,1.313,1.141,1.904,1.7
					c0.579,0.572,1.085,1.141,1.503,1.646c0.839,1.003,1.303,1.77,1.303,1.77c0.015,0.024,0.007,0.057-0.018,0.071
					c-0.017,0.01-0.037,0.01-0.053,0.001c0,0-0.774-0.45-1.793-1.271c-0.513-0.408-1.09-0.903-1.672-1.472
					c-0.571-0.581-1.141-1.239-1.735-1.873c-2.386-2.525-4.709-5.116-4.709-5.115c-0.019-0.021-0.017-0.053,0.004-0.071
					C348.843,107.503,348.871,107.503,348.89,107.519z"/>
			</g>
			<g id="RELIEF_2_" opacity="0.4">
				<path fill="#939598" d="M298.675,77.212c0,0,0.416,0.077,1.146,0.213c0.363,0.075,0.81,0.133,1.312,0.261
					c0.505,0.124,1.073,0.265,1.694,0.418c0.61,0.188,1.272,0.391,1.973,0.605c0.691,0.242,1.411,0.529,2.155,0.826
					c0.72,0.351,1.499,0.646,2.23,1.07c0.371,0.201,0.745,0.404,1.121,0.608l1.087,0.691c0.371,0.219,0.72,0.474,1.063,0.733
					c0.341,0.263,0.704,0.494,1.021,0.781c0.32,0.283,0.639,0.563,0.953,0.841c0.306,0.288,0.576,0.607,0.858,0.903
					c0.282,0.298,0.519,0.627,0.744,0.953c0.223,0.328,0.478,0.622,0.632,0.975c0.173,0.337,0.342,0.664,0.505,0.98
					c0.133,0.332,0.242,0.661,0.355,0.972c0.132,0.304,0.187,0.619,0.231,0.919c0.049,0.299,0.104,0.578,0.137,0.843
					c0.001,0.539,0.024,1.003-0.024,1.38c-0.141,0.754-0.239,1.164-0.239,1.164c-0.006,0.027-0.033,0.044-0.06,0.037
					c-0.022-0.005-0.037-0.024-0.038-0.046v-0.009c0,0-0.017-0.434-0.015-1.154c-0.033-0.361-0.129-0.795-0.189-1.285
					c-0.164-0.475-0.276-1.024-0.547-1.574c-0.127-0.276-0.26-0.563-0.396-0.861c-0.175-0.279-0.354-0.568-0.539-0.865
					c-0.169-0.304-0.421-0.572-0.63-0.873c-0.216-0.298-0.44-0.599-0.714-0.872c-0.258-0.285-0.498-0.594-0.778-0.875
					c-0.286-0.277-0.574-0.559-0.866-0.842c-0.285-0.291-0.622-0.531-0.934-0.803c-0.315-0.268-0.637-0.532-0.984-0.764
					l-1.023-0.717c-0.357-0.214-0.713-0.428-1.065-0.64c-0.694-0.446-1.443-0.768-2.135-1.145c-0.722-0.316-1.419-0.622-2.08-0.912
					c-0.678-0.253-1.319-0.492-1.911-0.712c-0.604-0.188-1.156-0.359-1.646-0.512c-0.49-0.156-0.936-0.241-1.293-0.337
					c-0.72-0.179-1.131-0.28-1.131-0.28c-0.026-0.007-0.043-0.034-0.036-0.061C298.623,77.224,298.648,77.207,298.675,77.212z"/>
			</g>
			<g id="SL_RELIEF_3_" opacity="0.4">
				<path fill="#939598" d="M218.827,76.375c0,0-0.37,0.658-1.019,1.81c-0.666,1.14-1.583,2.791-2.745,4.732
					c-1.167,1.939-2.487,4.227-3.975,6.633c-1.482,2.408-3.064,4.977-4.647,7.546c-1.62,2.545-3.24,5.09-4.759,7.476
					c-1.518,2.387-2.997,4.575-4.232,6.472c-1.239,1.894-2.323,3.439-3.058,4.537c-0.753,1.086-1.183,1.706-1.183,1.706
					s0.37-0.658,1.019-1.81c0.666-1.14,1.584-2.79,2.746-4.731c1.166-1.939,2.489-4.226,3.974-6.634
					c1.483-2.408,3.065-4.977,4.647-7.546c1.619-2.545,3.239-5.09,4.759-7.476c1.515-2.389,2.996-4.576,4.231-6.472
					c1.238-1.895,2.323-3.439,3.058-4.537C218.396,76.995,218.827,76.375,218.827,76.375z"/>
			</g>
			<g id="QL_RELIEF_3_" opacity="0.4">
				<path fill="#939598" d="M163.808,100.496c0,0-2.893,3.681-5.854,7.302c-0.73,0.914-1.45,1.837-2.154,2.677
					c-0.727,0.821-1.422,1.572-2.052,2.187c-0.634,0.611-1.159,1.122-1.555,1.456c-0.387,0.343-0.621,0.525-0.621,0.525
					c-0.022,0.018-0.055,0.014-0.072-0.009c-0.013-0.017-0.014-0.039-0.004-0.056c0,0,0.147-0.259,0.431-0.69
					c0.273-0.44,0.704-1.034,1.217-1.75c0.518-0.711,1.16-1.508,1.868-2.345c0.729-0.817,1.539-1.663,2.338-2.518
					c3.156-3.452,6.382-6.845,6.382-6.846c0.02-0.02,0.051-0.021,0.071-0.001C163.821,100.446,163.823,100.476,163.808,100.496z"/>
			</g>
		</g>
	</g>
	<g id="face">
		<g id="mouth">
			<path id="BOUCHE_2_" fill="#58595B" d="M243.732,144.027c0-2.82-24.039-2.82-24.039,0c0,2.825,5.383,5.113,12.021,5.113
				C238.355,149.141,243.732,146.853,243.732,144.027z"/>
			<path id="LANGUE_2_" opacity="0.6" fill="#808285" d="M235.906,145.943c0-1.176-9.97-1.176-9.97,0c0,1.171,2.234,2.12,4.988,2.12
				S235.906,147.114,235.906,145.943z"/>
		</g>
		<g id="eyes">
			<g id="eyes_1_">
				<path id="eye_x5F_r" opacity="0.9" fill="#6D6E71" d="M292.816,121.582c0,11.937-9.672,21.607-21.603,21.607
					c-11.936,0-21.608-9.671-21.608-21.607c0-11.93,9.673-21.604,21.608-21.604C283.145,99.979,292.816,109.652,292.816,121.582z"/>
				<path id="eye_x5F_l" opacity="0.9" fill="#6D6E71" d="M217.884,125.094c0,8.166-6.614,14.78-14.78,14.78
					c-8.16,0-14.78-6.614-14.78-14.78c0-8.167,6.62-14.778,14.78-14.778C211.27,110.315,217.884,116.927,217.884,125.094z"/>
			</g>

			<!--  -->
			<g id="pupils">
				<g id="pupils_x5F_normal">
					<path id="pup_x5F_l_x5F_norm" opacity="0.5" fill="#414042" d=
					"M215.033,124.789c0,6.339-5.131,11.465-11.464,11.465
					c-6.338,0-11.465-5.126-11.465-11.465
					c0-6.331,5.127-11.464,11.465-11.464
					C209.902,113.325,215.033,118.458,215.033,124.789z"
					/>
						<!-- 
							M215.033, 124.789
							c0, 6.339-5.131, 11.465-11.464, 11.465
							c-6.338, 0 -11.465, -5.126 -11.465, -11.465
							c0 -6.331, 5.127 -11.464, 11.465 -11.464
							C209.902, 113.325, 215.033, 118.458, 215.033, 124.789z

							x+5
							"M220.033, 124.789
							c0, 6.339-5.131, 11.465-11.464, 11.465
							c-6.338, 0 -11.465, -5.126 -11.465, -11.465
							c0 -6.331, 5.127 -11.464, 11.465 -11.464
							C214.902, 113.325, 220.033, 118.458, 220.033, 124.789z"
						 -->
					<path id="pup_x5F_r_x5F_norm" opacity="0.5" fill="#414042" d="M289.034,121.582c0,9.404-7.616,17.02-17.014,17.02
						c-9.403,0-17.021-7.615-17.021-17.02c0-9.397,7.617-17.015,17.021-17.015C281.418,104.567,289.034,112.185,289.034,121.582z"/>
				</g>
				<g id="pupils_x5F_happy">
					<path id="pup_x5F_l_x5F_happy" opacity="0.5" fill="#414042" d="M212.882,126.122c0-6.327-4.594-11.444-10.263-11.444
						c-5.674,0-10.263,5.117-10.263,11.444c0,6.322,4.589,4.166,10.263,4.166C208.288,130.288,212.882,132.444,212.882,126.122z"/>
					<path id="pup_x5F_r_x5F_happy" opacity="0.5" fill="#414042" d="M288.782,123.52c0-9.388-7.604-16.992-16.985-16.992
						c-9.388,0-16.992,7.604-16.992,16.992c0,9.382,7.602,4.982,16.988,4.982C281.176,128.502,288.782,132.901,288.782,123.52z"/>
				</g>
				<g id="pupils_x5F_sleep">
					<path id="pup_x5F_l_x5F_sleep" opacity="0.5" fill="#414042" d="M212.882,127.905c0,4.495-4.594,8.131-10.263,8.131
						c-5.674,0-10.263-3.636-10.263-8.131c0-4.492,4.589-2.96,10.263-2.96C208.288,124.945,212.882,123.413,212.882,127.905z"/>
					<path id="pup_x5F_r_x5F_sleep" opacity="0.5" fill="#414042" d="M288.782,125.281c0,7.382-7.604,13.361-16.985,13.361
						c-9.388,0-16.992-5.979-16.992-13.361c0-7.377,7.602-3.917,16.988-3.917C281.176,121.364,288.782,117.904,288.782,125.281z"/>
				</g>
				<g id="pupils_x5F_angry">
					<path id="pup_x5F_l_x5F_angry" opacity="0.5" fill="#414042" d="M215.033,124.789c0,6.339-5.131,11.465-11.464,11.465
						c-6.338,0-11.465-5.126-11.465-11.465c0-6.331,5.127-11.464,11.465-11.464C206.587,113.325,215.033,121.476,215.033,124.789z"
						/>
					<path id="pup_x5F_r_x5F_angry" opacity="0.5" fill="#414042" d="M289.034,121.582c0,9.404-7.616,17.02-17.014,17.02
						c-9.403,0-17.021-7.615-17.021-17.02c0-4.092,11.711-17.015,17.021-17.015C281.418,104.567,289.034,112.185,289.034,121.582z"
						/>
				</g> 
			</g>
		</g>
	</g>
	
	<g id="slash">
		<path id="slash_ombre" fill="#939598" d="M184.854,141.021c-2.361,3.675-7.248,4.73-10.921,2.378l0,0
			c-3.664-2.36-4.731-7.253-2.366-10.927l38.3-59.609c2.359-3.675,7.246-4.731,10.913-2.378l0,0
			c3.676,2.359,4.738,7.253,2.379,10.92L184.854,141.021z"/>
		<path id="slash_1_" fill="#656668" d="M182.302,142.037c-2.359,3.674-7.246,4.737-10.921,2.378l0,0
			c-3.668-2.361-4.737-7.248-2.37-10.921l38.305-59.615c2.358-3.669,7.245-4.732,10.915-2.373l0,0
			c3.673,2.361,4.737,7.248,2.377,10.922L182.302,142.037z"/>
		<g id="slash_relief" opacity="0.4">
			<path fill="#939598" d="M215.912,80.009c0,0-0.37,0.658-1.019,1.81c-0.666,1.14-1.582,2.791-2.746,4.732
				c-1.166,1.938-2.486,4.227-3.974,6.633c-1.482,2.408-3.064,4.977-4.647,7.545c-1.62,2.545-3.24,5.09-4.759,7.476
				c-1.518,2.388-2.997,4.575-4.232,6.472c-1.239,1.894-2.323,3.439-3.058,4.537c-0.753,1.086-1.183,1.706-1.183,1.706
				s0.37-0.658,1.019-1.81c0.666-1.14,1.584-2.79,2.746-4.731c1.166-1.939,2.489-4.226,3.974-6.633
				c1.483-2.408,3.065-4.978,4.647-7.546c1.619-2.545,3.239-5.091,4.759-7.477c1.515-2.388,2.996-4.575,4.231-6.471
				c1.238-1.895,2.323-3.439,3.058-4.537C215.481,80.629,215.912,80.009,215.912,80.009z"/>
		</g>
	</g>
</g>
</svg>
